<svg width="20" height="19" viewBox="0 0 20 19" fill="none" xmlns="http://www.w3.org/2000/svg">
<rect width="20" height="19" fill="white"/>
<path d="M7.704 15.176C6.69067 15.176 5.752 14.9627 4.888 14.536C4.024 14.1093 3.33067 13.4693 2.808 12.616C2.28533 11.7627 2.024 10.7227 2.024 9.496C2.024 8.408 2.26933 7.432 2.76 6.568C3.26133 5.704 3.96 5.02667 4.856 4.536C5.76267 4.04533 6.80267 3.8 7.976 3.8C8.72267 3.8 9.39467 3.88533 9.992 4.056C10.6 4.22667 11.08 4.41333 11.432 4.616V6.392C11.1013 5.816 10.6053 5.352 9.944 5C9.29333 4.648 8.62667 4.472 7.944 4.472C6.99467 4.472 6.168 4.67467 5.464 5.08C4.77067 5.47467 4.23733 6.04 3.864 6.776C3.49067 7.512 3.304 8.376 3.304 9.368C3.304 10.4453 3.51733 11.368 3.944 12.136C4.38133 12.904 4.95733 13.48 5.672 13.864C6.38667 14.248 7.16533 14.44 8.008 14.44C8.392 14.44 8.78667 14.3973 9.192 14.312C9.608 14.216 9.992 14.0827 10.344 13.912V11.272C10.344 10.9413 10.2907 10.6853 10.184 10.504C10.0773 10.312 9.96 10.1787 9.832 10.104C9.704 10.0187 9.64 9.98667 9.64 10.008H12.2C12.2 9.98667 12.136 10.008 12.008 10.072C11.88 10.136 11.7627 10.2587 11.656 10.44C11.5493 10.6107 11.496 10.856 11.496 11.176V14.088C10.9307 14.44 10.3173 14.712 9.656 14.904C9.00533 15.0853 8.35467 15.176 7.704 15.176ZM13.557 15.192C13.0023 15.192 12.469 15.1173 11.957 14.968C11.445 14.808 10.9863 14.5893 10.581 14.312V12.376C10.8583 13.0907 11.2797 13.6347 11.845 14.008C12.421 14.3707 13.0183 14.552 13.637 14.552C14.2557 14.552 14.773 14.3493 15.189 13.944C15.605 13.528 15.813 13.016 15.813 12.408C15.813 12.0027 15.7277 11.656 15.557 11.368C15.397 11.08 15.1357 10.8133 14.773 10.568C14.4103 10.312 13.8983 10.0293 13.237 9.72C12.309 9.29333 11.6317 8.85067 11.205 8.392C10.789 7.92267 10.581 7.35733 10.581 6.696C10.581 6.13067 10.7143 5.62933 10.981 5.192C11.2583 4.744 11.6263 4.40267 12.085 4.168C12.5543 3.92267 13.0663 3.8 13.621 3.8C14.101 3.8 14.5703 3.86933 15.029 4.008C15.4877 4.136 15.9143 4.32267 16.309 4.568V6.296C16.053 5.70933 15.6637 5.256 15.141 4.936C14.629 4.60533 14.1063 4.44 13.573 4.44C12.965 4.44 12.4743 4.63733 12.101 5.032C11.7277 5.42667 11.541 5.896 11.541 6.44C11.541 6.83467 11.653 7.176 11.877 7.464C12.101 7.74133 12.373 7.976 12.693 8.168C13.0237 8.36 13.4823 8.59467 14.069 8.872C14.6663 9.16 15.157 9.42667 15.541 9.672C15.925 9.91733 16.245 10.2373 16.501 10.632C16.757 11.0267 16.885 11.5067 16.885 12.072C16.885 12.712 16.7303 13.2667 16.421 13.736C16.1223 14.2053 15.717 14.568 15.205 14.824C14.7037 15.0693 14.1543 15.192 13.557 15.192Z" fill="#162D54"/>
</svg>
