<svg width="89" height="89" viewBox="0 0 89 89" fill="none" xmlns="http://www.w3.org/2000/svg">
<path d="M44.4993 7.41669C24.0516 7.41669 7.41602 24.0523 7.41602 44.5C7.41602 64.9478 24.0516 81.5834 44.4993 81.5834C64.9471 81.5834 81.5827 64.9478 81.5827 44.5C81.5827 24.0523 64.9471 7.41669 44.4993 7.41669ZM44.4993 74.1667C28.1419 74.1667 14.8327 60.8575 14.8327 44.5C14.8327 28.1426 28.1419 14.8334 44.4993 14.8334C60.8568 14.8334 74.166 28.1426 74.166 44.5C74.166 60.8575 60.8568 74.1667 44.4993 74.1667Z" fill="white"/>
<path d="M40.791 40.7916H48.2077V63.0416H40.791V40.7916ZM40.791 25.9583H48.2077V33.375H40.791V25.9583Z" fill="white"/>
</svg>
