<svg width="56" height="56" viewBox="0 0 56 56" fill="none" xmlns="http://www.w3.org/2000/svg">
<path d="M22.75 26.25V40.25L35 33.25L22.75 26.25Z" fill="white"/>
<path d="M45.5 49H10.5C9.57203 48.9991 8.68233 48.63 8.02615 47.9739C7.36997 47.3177 7.00093 46.428 7 45.5V21C7.00093 20.072 7.36997 19.1823 8.02615 18.5261C8.68233 17.87 9.57203 17.5009 10.5 17.5H45.5C46.428 17.5009 47.3177 17.87 47.9739 18.5261C48.63 19.1823 48.9991 20.072 49 21V45.5C48.9991 46.428 48.63 47.3177 47.9739 47.9739C47.3177 48.63 46.428 48.9991 45.5 49ZM10.5 21V45.5H45.5V21H10.5ZM10.5 10.5H45.5V14H10.5V10.5ZM14 3.5H42V7H14V3.5Z" fill="white"/>
</svg>
