<svg width="56" height="56" viewBox="0 0 56 56" fill="none" xmlns="http://www.w3.org/2000/svg">
<path d="M8.39962 24.528V14C8.39682 13.272 8.54521 12.5468 8.83642 11.8776C9.12237 11.2157 9.52231 10.6092 10.018 10.0856C10.5099 9.56356 11.1023 9.1464 11.7596 8.85919C12.4316 8.56519 13.1568 8.41119 13.8904 8.39999H33.7088C34.4424 8.39439 35.1648 8.55119 35.8312 8.85919C36.4836 9.16159 37.0744 9.57599 37.5812 10.0856C38.088 10.5896 38.4912 11.1944 38.7628 11.8552C39.0428 12.5356 39.1912 13.2636 39.1996 14V33.6H47.5996V39.3764C47.6024 40.4544 47.3812 41.5184 46.9444 42.504C46.076 44.4775 44.4995 46.0539 42.526 46.9224C41.532 47.36 40.4593 47.5906 39.3732 47.6H33.3672C33.1586 47.0102 32.8209 46.4745 32.3788 46.032L31.1468 44.8H36.3996V14C36.4017 13.6313 36.3273 13.2661 36.1812 12.9276C36.0376 12.597 35.8377 12.2938 35.5904 12.0316C35.3387 11.7659 35.0332 11.5569 34.6944 11.4184C34.3476 11.2736 33.9754 11.1993 33.5996 11.2H13.9996C13.634 11.1957 13.2712 11.2652 12.933 11.4042C12.5948 11.5432 12.2881 11.749 12.0312 12.0092C11.7745 12.2685 11.5667 12.572 11.418 12.9052C11.2601 13.2478 11.1852 13.6229 11.1996 14V23.1224C10.2114 23.4726 9.27084 23.9448 8.39962 24.528ZM39.3088 44.8C40.0256 44.8028 40.7312 44.6544 41.3864 44.3632C42.7024 43.7752 43.7524 42.7252 44.3404 41.4092C44.6333 40.7472 44.7895 40.033 44.7996 39.3092V36.4H39.1996V44.8H39.3088ZM25.8884 28H29.3996C29.7709 28 30.127 27.8525 30.3896 27.5899C30.6521 27.3274 30.7996 26.9713 30.7996 26.6C30.7996 26.2287 30.6521 25.8726 30.3896 25.61C30.127 25.3475 29.7709 25.2 29.3996 25.2H23.3348C24.3223 25.9992 25.1832 26.9433 25.8884 28ZM18.1996 19.6C17.8283 19.6 17.4722 19.4525 17.2097 19.1899C16.9471 18.9274 16.7996 18.5713 16.7996 18.2C16.7996 17.8287 16.9471 17.4726 17.2097 17.21C17.4722 16.9475 17.8283 16.8 18.1996 16.8H29.3996C29.7709 16.8 30.127 16.9475 30.3896 17.21C30.6521 17.4726 30.7996 17.8287 30.7996 18.2C30.7996 18.5713 30.6521 18.9274 30.3896 19.1899C30.127 19.4525 29.7709 19.6 29.3996 19.6H18.1996ZM21.2796 42.84C19.2965 44.3273 16.8235 45.0079 14.3586 44.7445C11.8938 44.4812 9.62032 43.2936 7.99617 41.421C6.37201 39.5483 5.51786 37.1297 5.60578 34.6524C5.6937 32.1751 6.71715 29.8232 8.46997 28.0703C10.2228 26.3175 12.5747 25.2941 15.052 25.2062C17.5293 25.1182 19.9479 25.9724 21.8206 27.5965C23.6933 29.2207 24.8809 31.4942 25.1442 33.959C25.4075 36.4238 24.7269 38.8969 23.2396 40.88L30.3992 48.0004C30.5294 48.1304 30.6327 48.2847 30.7032 48.4546C30.7737 48.6245 30.8101 48.8066 30.8102 48.9906C30.8103 49.1745 30.7742 49.3567 30.7039 49.5267C30.6337 49.6967 30.5306 49.8512 30.4006 49.9814C30.2706 50.1116 30.1163 50.2148 29.9464 50.2854C29.7765 50.3559 29.5944 50.3922 29.4104 50.3924C29.2265 50.3925 29.0443 50.3564 28.8743 50.2861C28.7043 50.2158 28.5498 50.1128 28.4196 49.9828L21.2796 42.84ZM11.5104 40.8212C12.2751 41.3321 13.1328 41.6874 14.0348 41.8668C14.9367 42.0462 15.8652 42.0463 16.7671 41.8669C17.6691 41.6875 18.5269 41.3322 19.2915 40.8212C20.0562 40.3103 20.7127 39.6538 21.2236 38.8892C21.7345 38.1245 22.0898 37.2668 22.2693 36.3648C22.4487 35.4629 22.4487 34.5344 22.2693 33.6325C22.0899 32.7305 21.7346 31.8727 21.2237 31.1081C20.7128 30.3434 20.0562 29.6869 19.2916 29.176C17.747 28.1438 15.8556 27.7674 14.0335 28.1297C12.2114 28.4921 10.6078 29.5634 9.57562 31.108C8.54339 32.6526 8.16705 34.544 8.52937 36.3661C8.89169 38.1882 9.96299 39.7918 11.5076 40.824L11.5104 40.8212Z" fill="white"/>
</svg>
