<svg width="51" height="51" viewBox="0 0 51 51" fill="none" xmlns="http://www.w3.org/2000/svg">
<path d="M38.25 17C41.7708 17 44.625 14.1458 44.625 10.625C44.625 7.10418 41.7708 4.25 38.25 4.25C34.7292 4.25 31.875 7.10418 31.875 10.625C31.875 14.1458 34.7292 17 38.25 17Z" stroke="#1A1A1A" stroke-width="4.66667"/>
<path d="M38.25 46.75C41.7708 46.75 44.625 43.8958 44.625 40.375C44.625 36.8542 41.7708 34 38.25 34C34.7292 34 31.875 36.8542 31.875 40.375C31.875 43.8958 34.7292 46.75 38.25 46.75Z" stroke="#1A1A1A" stroke-width="4.66667"/>
<path d="M12.75 31.875C16.2708 31.875 19.125 29.0208 19.125 25.5C19.125 21.9792 16.2708 19.125 12.75 19.125C9.22918 19.125 6.375 21.9792 6.375 25.5C6.375 29.0208 9.22918 31.875 12.75 31.875Z" stroke="#1A1A1A" stroke-width="4.66667"/>
<path d="M32.7415 37.1619L18.2617 28.715M32.7415 13.8379L18.2617 22.2848L32.7415 13.8379Z" stroke="#1A1A1A" stroke-width="4.66667" stroke-linecap="round" stroke-linejoin="round"/>
</svg>
