<svg width="56" height="56" viewBox="0 0 56 56" fill="none" xmlns="http://www.w3.org/2000/svg">
<path d="M15.4004 8.40002C13.5439 8.40002 11.7634 9.13752 10.4506 10.4503C9.13789 11.763 8.40039 13.5435 8.40039 15.4V40.6C8.40039 42.4565 9.13789 44.237 10.4506 45.5498C11.7634 46.8625 13.5439 47.6 15.4004 47.6H26.8804C26.4225 46.7051 26.0539 45.7672 25.78 44.8H15.4004C14.2865 44.8 13.2182 44.3575 12.4305 43.5699C11.6429 42.7822 11.2004 41.7139 11.2004 40.6V19.6H44.8004V25.7796C45.7776 26.0568 46.7128 26.4236 47.6004 26.88V15.4C47.6004 13.5435 46.8629 11.763 45.5501 10.4503C44.2374 9.13752 42.4569 8.40002 40.6004 8.40002H15.4004ZM11.2004 15.4C11.2004 14.2861 11.6429 13.2178 12.4305 12.4302C13.2182 11.6425 14.2865 11.2 15.4004 11.2H40.6004C41.7143 11.2 42.7826 11.6425 43.5702 12.4302C44.3579 13.2178 44.8004 14.2861 44.8004 15.4V16.8H11.2004V15.4ZM25.2004 23.8V40.6C25.2004 40.9713 25.0529 41.3274 24.7903 41.59C24.5278 41.8525 24.1717 42 23.8004 42H15.4004C15.0291 42 14.673 41.8525 14.4104 41.59C14.1479 41.3274 14.0004 40.9713 14.0004 40.6V23.8C14.0004 23.4287 14.1479 23.0726 14.4104 22.8101C14.673 22.5475 15.0291 22.4 15.4004 22.4H23.8004C24.1717 22.4 24.5278 22.5475 24.7903 22.8101C25.0529 23.0726 25.2004 23.4287 25.2004 23.8ZM16.8004 25.2V39.2H22.4004V25.2H16.8004ZM27.9948 23.8C27.9948 23.4287 28.1423 23.0726 28.4048 22.8101C28.6674 22.5475 29.0235 22.4 29.3948 22.4H40.6004C40.9717 22.4 41.3278 22.5475 41.5903 22.8101C41.8529 23.0726 42.0004 23.4287 42.0004 23.8C42.0004 24.1713 41.8529 24.5274 41.5903 24.79C41.3278 25.0525 40.9717 25.2 40.6004 25.2H29.3948C29.0235 25.2 28.6674 25.0525 28.4048 24.79C28.1423 24.5274 27.9948 24.1713 27.9948 23.8ZM33.7852 32.0376C33.9868 32.7562 34.0428 33.5078 33.9498 34.2483C33.8569 34.9888 33.6168 35.7033 33.2438 36.3497C32.8708 36.9961 32.3723 37.5614 31.7776 38.0125C31.183 38.4635 30.5042 38.7911 29.7812 38.976L28.4876 39.3064C28.3942 40.2529 28.4035 41.2068 28.5156 42.1512L29.4956 42.3836C30.2379 42.5592 30.9366 42.8845 31.5487 43.3398C32.1608 43.795 32.6735 44.3705 33.0552 45.0309C33.437 45.6914 33.6798 46.4229 33.7687 47.1805C33.8576 47.9381 33.7908 48.7059 33.5724 49.4368L33.2168 50.6184C33.9392 51.1896 34.7204 51.6768 35.5548 52.0688L36.4648 51.1056C36.9887 50.5509 37.6204 50.1091 38.3212 49.8073C39.0219 49.5055 39.777 49.3501 40.54 49.3506C41.303 49.3512 42.0578 49.5076 42.7582 49.8103C43.4586 50.1131 44.0897 50.5558 44.6128 51.1112L45.5564 52.1136C46.374 51.7356 47.1468 51.268 47.858 50.7192L47.4212 49.1624C47.2191 48.4437 47.1628 47.6918 47.2556 46.9509C47.3483 46.2101 47.5883 45.4953 47.9614 44.8486C48.3344 44.2019 48.8331 43.6363 49.4279 43.1851C50.0228 42.7338 50.7018 42.4061 51.4252 42.2212L52.7132 41.8936C52.8062 40.9462 52.7968 39.9915 52.6852 39.046L51.7108 38.8164C50.9681 38.6409 50.2691 38.3155 49.6568 37.86C49.0445 37.4046 48.5317 36.8289 48.1499 36.1681C47.7681 35.5073 47.5254 34.7755 47.4367 34.0175C47.348 33.2596 47.4151 32.4915 47.634 31.7604L47.9868 30.5816C47.2653 30.0098 46.4809 29.5222 45.6488 29.1284L44.7388 30.0916C44.2151 30.6465 43.5835 31.0886 42.8829 31.3906C42.1822 31.6926 41.4272 31.8483 40.6642 31.848C39.9012 31.8478 39.1463 31.6916 38.4458 31.3891C37.7454 31.0866 37.1141 30.6441 36.5908 30.0888L35.6472 29.0864C34.8306 29.4632 34.0586 29.93 33.3456 30.478L33.7852 32.0376ZM40.6004 43.4C39.8578 43.4 39.1456 43.105 38.6205 42.5799C38.0954 42.0548 37.8004 41.3426 37.8004 40.6C37.8004 39.8574 38.0954 39.1452 38.6205 38.6201C39.1456 38.095 39.8578 37.8 40.6004 37.8C41.343 37.8 42.0552 38.095 42.5803 38.6201C43.1054 39.1452 43.4004 39.8574 43.4004 40.6C43.4004 41.3426 43.1054 42.0548 42.5803 42.5799C42.0552 43.105 41.343 43.4 40.6004 43.4Z" fill="#1A1A1A"/>
</svg>
