<svg width="56" height="56" viewBox="0 0 56 56" fill="none" xmlns="http://www.w3.org/2000/svg">
<g clip-path="url(#clip0_23_600)">
<path d="M31.4375 0.5H38.2438C38.7388 2.95781 40.1 6.05844 42.4891 9.135C44.8266 12.1497 47.9272 14.25 52.0625 14.25V21.125C46.0366 21.125 41.5094 18.3269 38.3125 14.8378V38.3125C38.3125 41.7119 37.3045 45.0349 35.4159 47.8614C33.5273 50.6878 30.843 52.8908 27.7024 54.1917C24.5618 55.4926 21.1059 55.8329 17.7719 55.1697C14.4378 54.5066 11.3753 52.8696 8.97161 50.4659C6.56789 48.0622 4.93094 44.9997 4.26776 41.6656C3.60458 38.3316 3.94495 34.8757 5.24583 31.7351C6.54671 28.5945 8.74967 25.9102 11.5761 24.0216C14.4026 22.133 17.7256 21.125 21.125 21.125V28C19.0854 28 17.0916 28.6048 15.3957 29.738C13.6998 30.8711 12.378 32.4817 11.5975 34.3661C10.817 36.2504 10.6127 38.3239 11.0107 40.3244C11.4086 42.3248 12.3907 44.1623 13.833 45.6045C15.2752 47.0468 17.1127 48.0289 19.1131 48.4268C21.1136 48.8248 23.1871 48.6205 25.0714 47.84C26.9558 47.0595 28.5664 45.7377 29.6995 44.0418C30.8327 42.3459 31.4375 40.3521 31.4375 38.3125V0.5Z" fill="#1A1A1A"/>
</g>
<defs>
<clipPath id="clip0_23_600">
<rect width="55" height="55" fill="white" transform="translate(0.5 0.5)"/>
</clipPath>
</defs>
</svg>
